static optimization
version=1
nRows=9
nColumns=93
inDegrees=yes
endheader
time	glut_med1_r	glut_med2_r	glut_med3_r	glut_min1_r	glut_min2_r	glut_min3_r	semimem_r	semiten_r	bifemlh_r	bifemsh_r	sar_r	add_long_r	add_brev_r	add_mag1_r	add_mag2_r	add_mag3_r	tfl_r	pect_r	grac_r	glut_max1_r	glut_max2_r	glut_max3_r	iliacus_r	psoas_r	quad_fem_r	gem_r	peri_r	rect_fem_r	vas_med_r	vas_int_r	vas_lat_r	med_gas_r	lat_gas_r	soleus_r	tib_post_r	flex_dig_r	flex_hal_r	tib_ant_r	per_brev_r	per_long_r	per_tert_r	ext_dig_r	ext_hal_r	glut_med1_l	glut_med2_l	glut_med3_l	glut_min1_l	glut_min2_l	glut_min3_l	semimem_l	semiten_l	bifemlh_l	bifemsh_l	sar_l	add_long_l	add_brev_l	add_mag1_l	add_mag2_l	add_mag3_l	tfl_l	pect_l	grac_l	glut_max1_l	glut_max2_l	glut_max3_l	iliacus_l	psoas_l	quad_fem_l	gem_l	peri_l	rect_fem_l	vas_med_l	vas_int_l	vas_lat_l	med_gas_l	lat_gas_l	soleus_l	tib_post_l	flex_dig_l	flex_hal_l	tib_ant_l	per_brev_l	per_long_l	per_tert_l	ext_dig_l	ext_hal_l	ercspn_r	ercspn_l	intobl_r	intobl_l	extobl_r	extobl_l
0.876000	298.235668	128.475289	127.551480	27.267995	30.079136	34.408792	0.000000	0.000000	0.000000	0.000000	2.350220	0.000000	0.000000	0.000000	0.000000	0.000000	19.856452	0.000000	0.000000	88.576506	113.633950	0.000000	0.000000	0.000000	0.000000	0.000000	30.747208	60.601913	53.123889	58.935566	114.790040	85.060969	16.805302	641.417677	36.944612	1.333746	1.949376	0.000000	1.386376	9.806803	0.000000	0.000000	0.000000	0.000000	0.000000	0.000000	0.000000	0.000000	0.000000	0.000000	0.000000	0.000000	0.000000	0.000000	38.737195	14.456372	11.229411	8.378909	7.119955	0.000000	3.493116	1.477921	0.000000	0.000000	0.000000	34.523284	34.232047	0.000000	0.000000	0.000000	11.131980	13.843715	16.124031	28.245389	0.000000	0.000000	0.000000	0.000000	0.000000	0.000000	18.094863	0.000000	0.000000	0.447967	5.184556	0.546828	0.000000	0.000000	0.000000	0.000000	0.000000	0.000000
0.892000	281.167397	121.190319	120.164739	25.787887	28.425563	32.485556	0.000000	0.000000	0.000000	0.000000	2.585699	0.000000	0.000000	0.000000	0.000000	0.000000	19.036166	0.000000	0.000000	82.143042	101.747267	0.000000	0.000000	0.000000	0.000000	0.000000	28.965387	49.909323	27.623082	30.630192	59.572598	121.390465	23.875566	717.121457	41.269702	1.488903	2.178613	0.000000	1.547940	10.967313	0.000000	0.000000	0.000000	0.000000	0.000000	0.000000	0.000000	0.000000	0.000000	0.000000	0.000000	0.000000	0.000000	0.000000	28.950847	10.468021	8.604718	5.490007	1.472212	0.000000	2.816300	1.161463	0.000000	0.000000	0.891925	30.036597	31.580350	5.577797	0.308074	0.000000	21.989531	9.482576	11.055755	19.292539	0.000000	0.000000	0.000000	0.000000	0.000000	0.000000	15.236963	0.000000	0.000000	0.375989	4.359665	0.460191	0.000000	0.000000	0.000000	0.000000	0.000000	0.000000
0.908000	272.958229	122.709646	127.720412	25.243073	28.338102	33.208829	0.000000	0.000000	0.000000	0.000000	3.490000	0.000000	0.000000	0.000000	0.000000	0.000000	19.881576	0.000000	0.000000	82.136519	95.657661	0.000000	0.000000	0.000000	0.000000	0.000000	32.927629	56.802712	0.104494	0.112856	0.202112	156.420413	30.680166	776.517376	44.656645	1.610252	2.358425	0.000000	1.674034	11.878912	0.000000	0.000000	0.000000	0.000000	0.000000	0.000000	0.000000	0.000000	0.000000	0.000000	0.000000	0.000000	0.000000	0.551163	13.097029	4.042217	3.539450	1.171777	0.000000	0.000000	1.492530	0.443885	0.000000	0.000000	0.000000	21.409324	23.983274	7.808835	0.946893	1.894797	30.021681	4.554886	5.312176	9.257218	0.000000	0.000000	0.000000	0.000000	0.000000	0.000000	14.033632	0.000000	0.000000	0.344888	4.010265	0.423542	0.000000	0.000000	0.000000	0.000000	0.000000	0.000000
0.924000	268.631693	131.092272	149.812636	26.193990	30.501283	37.403918	0.000000	0.000000	0.000000	37.548109	7.295495	0.000000	0.000000	0.000000	0.000000	0.000000	25.289231	0.000000	0.000000	75.316511	55.066881	0.000000	0.000000	4.965220	0.000000	0.000000	45.074206	56.877433	0.000000	0.000000	0.000000	277.325380	54.027523	726.821285	41.773208	1.505379	2.206806	0.000000	1.565474	11.121220	0.000000	0.000000	0.000000	0.000000	3.861299	13.494485	0.000000	0.533964	2.004408	0.000000	0.000000	0.000000	5.722959	1.737836	0.000000	0.000000	0.000000	0.000000	0.000000	2.647880	0.000000	0.000000	0.837216	0.000000	0.000000	17.141524	20.549653	2.993212	0.922154	7.448005	37.605138	0.000000	0.000000	0.000000	0.000000	0.000000	0.000000	0.000000	0.000000	0.000000	14.303744	0.000000	0.000000	0.350583	4.083177	0.431642	0.000000	0.000000	0.000000	0.000000	0.000000	0.000000
0.940000	264.349462	132.790122	156.109135	26.358682	31.002505	38.497774	0.000000	0.000000	0.000000	59.525381	8.600182	0.000000	0.000000	0.000000	0.000000	0.000000	26.604453	0.000000	0.000000	71.454291	36.539200	0.000000	28.605531	38.903399	0.000000	0.000000	48.693870	24.466716	0.000000	0.000000	0.000000	361.327925	70.272480	752.732014	43.241486	1.557462	2.285198	0.000000	1.619725	11.521869	0.000000	0.000000	0.000000	6.648507	18.286104	37.763815	1.404031	3.493849	6.841395	0.000000	0.000000	0.000000	26.818819	4.235710	0.000000	0.000000	0.000000	0.000000	0.000000	6.827914	0.000000	0.000000	9.352905	0.000000	0.000000	25.422026	32.197066	1.243324	1.626574	17.654915	39.194463	0.000000	0.000000	0.000000	2.253392	0.000000	0.000000	0.000000	0.000000	0.000000	17.865828	0.000000	0.000000	0.436651	5.096699	0.539056	0.000000	0.000000	0.000000	0.000000	0.000000	0.000000
0.956000	255.606022	132.660969	160.214765	25.687619	30.565799	38.526250	0.000000	0.000000	0.000000	91.712703	8.954550	0.000000	0.000000	0.000000	0.000000	0.000000	25.313429	0.000000	0.000000	71.705635	33.719723	0.000000	36.670328	47.740670	0.000000	0.000000	50.705849	0.000000	0.000000	0.000000	0.000000	478.354233	92.874726	755.675626	43.388987	1.562489	2.294687	0.000000	1.624993	11.573077	0.000000	0.000000	0.000000	13.248355	29.064547	58.627089	2.324920	5.540415	10.664788	0.000000	0.000000	0.000000	46.273822	6.584235	0.000000	0.000000	0.000000	0.000000	0.000000	10.383268	0.000000	0.000000	15.874765	1.576365	0.000000	35.861924	46.323743	1.083798	2.469512	27.085768	42.628203	0.000000	0.000000	0.000000	10.808564	0.912594	0.000000	0.000000	0.000000	0.000000	29.041047	0.000000	0.000000	0.708502	8.280715	0.876552	0.000000	0.000000	0.000000	0.000000	0.000000	0.000000
0.972000	240.156931	128.581368	159.320696	24.496307	29.451765	37.608175	47.922520	0.000000	0.000000	115.777454	9.218865	0.000000	0.000000	0.000000	0.000000	0.000000	23.967642	0.000000	0.000000	67.843952	23.904030	0.000000	51.551888	63.615584	0.000000	0.000000	51.388343	0.000000	0.000000	0.000000	0.000000	575.417882	111.630333	794.253002	45.578252	1.640435	2.411603	0.000000	1.706261	12.168774	0.000000	0.000000	0.000000	15.946450	35.926065	72.885218	2.812044	6.855785	13.262729	0.000000	0.000000	0.000000	63.140266	8.511767	0.000000	0.000000	0.000000	0.000000	0.000000	13.115801	0.000000	0.000000	19.498034	0.901673	0.000000	47.378943	61.111767	1.041496	3.155919	33.943393	43.476231	0.000000	0.000000	0.000000	17.416926	2.054859	0.000000	0.000000	0.000000	0.000000	38.903949	0.000000	0.000000	0.947793	11.089014	1.174392	0.000000	0.000000	0.000000	0.000000	0.000000	0.000000
0.988000	229.214369	123.011376	152.984461	23.848576	28.580538	36.385960	68.349077	0.000000	0.000000	129.772639	9.464246	0.000000	0.000000	0.000000	0.000000	0.000000	23.340533	0.000000	0.000000	59.886844	5.138643	0.000000	73.264490	86.243848	0.000000	0.000000	49.884306	0.000000	0.000000	0.000000	0.000000	639.668313	124.045521	843.390221	48.364085	1.739319	2.559330	0.000000	1.809497	12.923232	0.000000	0.000000	0.000000	16.321212	38.188169	78.107537	3.038548	7.460217	14.410772	0.000000	0.000000	0.000000	76.236163	9.865730	0.000000	0.000000	0.000000	0.000000	0.000000	14.936389	0.000000	0.000000	18.961533	0.000000	0.000000	60.617856	76.778186	0.450022	3.519069	37.093293	42.058950	0.000000	0.000000	0.000000	21.724541	3.024677	0.000000	0.000000	0.000000	0.000000	46.727346	0.000000	0.000000	1.136972	13.315218	1.410070	0.000000	0.000000	0.000000	0.000000	0.000000	0.000000
1.004000	232.066517	124.827857	155.859543	24.629775	29.412908	37.329082	73.113420	0.000000	0.000000	144.131552	10.137332	0.000000	0.000000	0.000000	0.000000	0.000000	24.221012	0.000000	0.000000	55.506050	0.000000	0.000000	98.627642	113.222529	0.000000	0.000000	51.344267	0.000000	0.000000	0.000000	0.000000	698.382399	135.363144	853.932813	48.925915	1.757596	2.587861	0.000000	1.829615	13.081266	0.000000	0.000000	0.000000	18.271351	36.891566	74.486577	3.386776	7.691234	14.375843	0.000000	0.000000	0.000000	85.257335	10.606406	0.000000	0.000000	0.000000	0.000000	0.000000	15.999878	0.000000	0.000000	14.554967	0.000000	0.000000	74.646452	92.076667	0.000000	3.436679	36.325958	37.798618	0.000000	0.000000	0.000000	23.568601	3.750378	0.000000	0.000000	0.000000	0.000000	52.230605	0.000000	0.000000	1.269089	14.879958	1.574869	0.000000	0.000000	0.000000	0.000000	0.000000	0.000000
